<?xml version="1.0" encoding="UTF-8"?>
<svg width="256px" height="94px" viewBox="0 0 256 94" version="1.1" xmlns="http://www.w3.org/2000/svg" xmlns:xlink="http://www.w3.org/1999/xlink">
    <title>logo-white-L</title>
    <defs>
        <rect id="path-1" x="0" y="0" width="255" height="79" rx="39.5"></rect>
        <path d="M25.2002781,11.1728516 C25.2002781,9.7893811 24.5002773,9.09765625 23.1002549,9.09765625 L10.5001159,9.09765625 C9.10009341,9.09765625 8.40009269,9.7893811 8.40009269,11.1728516 L8.40009269,23.6240234 C8.40009269,25.0074939 9.10009341,25.6992188 10.5001159,25.6992188 L23.1002549,25.6992188 C24.5002773,25.6992188 25.2002781,25.0074939 25.2002781,23.6240234 L25.2002781,11.1728516 Z M23.1002549,0.796875 C30.1003671,0.796875 33.6003708,4.25549927 33.6003708,11.1728516 L33.6003708,23.6240234 C33.6003708,30.5413757 30.1003671,34 23.1002549,34 L10.5001159,34 C3.5,34 0,30.5413757 0,23.6240234 L0,11.1728516 C0,4.25549927 3.5,0.796875 10.5001159,0.796875 L23.1002549,0.796875 Z M37.8004171,0.796875 L46.2005098,0.796875 L46.2005098,13.2480469 L49.938551,13.2480469 L62.5386901,0.796875 L74.3828208,0.796875 L57.5826354,17.3984375 L74.3828208,34 L62.5386901,34 L49.938551,21.5488281 L46.2005098,21.5488281 L46.2005098,34 L37.8004171,34 L37.8004171,0.796875 Z M75.6008342,0.796875 L84.0009269,0.796875 L84.0009269,13.2480469 L87.7389682,13.2480469 L100.339107,0.796875 L112.183238,0.796875 L95.3830525,17.3984375 L112.183238,34 L100.339107,34 L87.7389682,21.5488281 L84.0009269,21.5488281 L84.0009269,34 L75.6008342,34 L75.6008342,0.796875 Z M144.901599,11.1728516 L144.901599,13.2480469 L136.501506,15.3232422 L136.501506,11.1728516 C136.501506,9.7893811 135.801505,9.09765625 134.401483,9.09765625 L121.801344,9.09765625 C120.401322,9.09765625 119.701321,9.7893811 119.701321,11.1728516 L119.701321,23.6240234 C119.701321,25.0074939 120.401322,25.6992188 121.801344,25.6992188 L134.401483,25.6992188 C135.801505,25.6992188 136.501506,25.0074939 136.501506,23.6240234 L136.501506,19.4736328 L144.901599,21.5488281 L144.901599,23.6240234 C144.901599,30.5413757 141.401595,34 134.401483,34 L121.801344,34 C114.801228,34 111.301228,30.5413757 111.301228,23.6240234 L111.301228,11.1728516 C111.301228,4.25549927 114.801228,0.796875 121.801344,0.796875 L134.401483,0.796875 C141.401595,0.796875 144.901599,4.25549927 144.901599,11.1728516 Z" id="path-3"></path>
    </defs>
    <g id="Welcome" stroke="none" stroke-width="1" fill="none" fill-rule="evenodd">
        <g id="Desktop-HD-Dark-Copy" transform="translate(-11.000000, -9.000000)">
            <g id="logo-white-L" transform="translate(11.000000, 9.000000)">
                <g id="Group-24" transform="translate(1.000000, 15.000000)">
                    <g id="Group">
                        <g id="logo-bg">
                            <g id="flower-Clipped">
                                <mask id="mask-2" fill="white">
                                    <use xlink:href="#path-1"></use>
                                </mask>
                                <use id="Rectangle" fill="#531DAB" xlink:href="#path-1"></use>
                                <g id="flower" mask="url(#mask-2)">
                                    <g transform="translate(103.199313, -54.026805)" id="Path">
                                        <g transform="translate(94.750460, 93.785642) rotate(-60.000000) translate(-94.750460, -93.785642) translate(27.750460, 23.785642)">
                                            <path d="M52.0295163,77.1959825 C51.330345,77.1959825 50.6322163,76.9257141 50.0120339,76.386683 L23.7946689,53.5896575 C22.4541993,52.4238898 21.7240057,50.2165725 21.9385539,47.9783889 C23.7313211,29.2794301 28.3916821,15.1144306 28.5892853,14.5204423 C29.452431,11.9254141 31.5288294,10.6839864 33.40971,11.6374541 C33.8372422,11.8542711 43.9973869,17.0751938 54.3835499,28.3816723 C55.3634849,29.4484419 55.9398712,31.1182338 55.9398712,32.8904114 L55.9398712,71.549707 C55.9398712,73.5853775 55.180741,75.4637052 53.9534109,76.4653545 C53.3559087,76.9528163 52.6924519,77.1959825 52.0295163,77.1959825 Z" fill="#6D47C1"></path>
                                            <path d="M80.5765203,76.4371535 C79.9135848,76.4371535 79.2503887,76.1939868 78.6528865,75.7065245 C77.4255564,74.7048738 76.6664262,72.8265436 76.6664262,70.7908703 L76.6664262,32.1315219 C76.6664262,30.3593418 77.2425519,28.6899241 78.2227475,27.6227766 C88.6089106,16.3162827 98.7690552,11.0953528 99.1965874,10.8785355 C101.077468,9.92506646 103.154388,11.1672488 104.017012,13.7615277 C104.214616,14.3555167 108.874976,28.5205356 110.667743,47.2195199 C110.882292,49.4577066 110.152098,51.665027 108.811628,52.8307962 L82.5940028,75.6278529 C81.9740812,76.1668847 81.2756918,76.4371535 80.5765203,76.4371535 Z" fill="#562FAE"></path>
                                            <path d="M133.560885,42.4305436 C133.4514,39.5462241 131.865045,37.2439048 129.87898,37.0860358 C128.873075,37.0071013 105.470435,35.3683607 87.3287731,52.7913579 L67.0457917,52.7913579 L67.0333089,52.7913579 L46.7503274,52.7913579 C28.6086655,35.3683607 5.20602557,37.0071013 4.20012035,37.0860358 C2.21405566,37.2439048 0.627960529,39.5466017 0.518215957,42.4305436 C0.447480119,44.2924915 -1.00364479,88.3375655 17.302634,114.923008 C35.0994588,140.769336 64.2517261,139.495809 67.0395503,139.311503 C69.8273745,139.495431 98.9796418,140.768958 116.776467,114.923008 C135.082745,88.3379432 133.63162,44.2928691 133.560885,42.4305436 Z" fill="#A67CF9"></path>
                                            <path d="M133.926436,40.8600371 C133.817776,37.9185986 132.243348,35.570686 130.272216,35.4096907 C129.273874,35.329193 106.047194,33.658 88.041935,51.426029 L67.9114573,51.426029 L67.9052628,51.426029 L67.9052628,139.659553 C70.6721259,139.847124 99.6052032,141.145871 117.268217,114.788087 C135.436855,87.6765519 133.99664,42.7592427 133.926436,40.8600371 Z" fill="#602D90"></path>
                                            <path d="M66.8119203,138.255297 C65.8657693,138.255297 64.9196182,137.782127 64.1667156,136.835787 C63.1914847,135.609999 40.2821505,106.386652 40.2821505,69.3365175 C40.2821505,32.286383 63.1914847,3.06303606 64.1667156,1.83724756 C65.6725208,-0.0558033313 67.9513199,-0.0558033313 69.4573895,1.83724756 C70.4326203,3.06303606 93.3419545,32.286383 93.3419545,69.3365175 C93.3419545,106.386281 70.4326203,135.609999 69.4573895,136.835787 C68.7042226,137.782127 67.7580714,138.255297 66.8119203,138.255297 Z" fill="#A059E2"></path>
                                            <path d="M70.0503904,2.21281443 C69.3116897,1.26647518 68.3833859,0.79330555 67.4550821,0.79330555 L67.4550821,138.631143 C68.3833859,138.631143 69.3116897,138.157974 70.0503904,137.211634 C71.0072254,135.985847 93.48442,106.762519 93.48442,69.71241 C93.48442,32.6623005 71.0072254,3.43897321 70.0503904,2.21281443 Z" fill="#8E30BD"></path>
                                        </g>
                                    </g>
                                </g>
                            </g>
                        </g>
                    </g>
                    <g id="Group-23" transform="translate(70.000000, 16.000000)">
                        <g id="OKKC" transform="translate(11.000000, 0.000000)">
                            <g>
                                <use fill="#000000" xlink:href="#path-3"></use>
                                <use fill="#FFFFFF" xlink:href="#path-3"></use>
                            </g>
                        </g>
                        <text id="BUSSINES-ONLINE" font-family="TTNorms-Medium, TT Norms" font-size="9" font-weight="400" fill="#FFFFFF">
                            <tspan x="44.2067871" y="43">BUSSINES ONLINE</tspan>
                        </text>
                    </g>
                </g>
                <path d="M80.9515136,52.6748045 L81,53.1601268 L80.868394,53.6107833 L80.636352,54.0441068 L80.2519241,54.446231 L79.7532068,54.8136893 L79.1367368,55.1534149 L78.4302206,55.4723411 L77.6405849,55.7878006 L77.6405849,57.1605694 L77.8379939,58.5368048 L78.1600821,60.0447706 L78.676116,61.6810001 L78.7800154,62.1351232 L78.676116,62.5649801 L78.478707,63.0191031 L78.1566188,63.4524266 L77.8033607,63.8129518 L77.2734736,64.197743 L76.7539764,64.5166691 L76.2136994,64.7939962 L76.7089533,65.123322 L77.1418676,65.4526479 L77.5055156,65.8582387 L77.8379939,66.2950287 L78.0665726,66.7456852 L78.2051052,67.2171411 L78.2951514,67.6747308 L78.3436378,68.1981855 L78.2951514,68.6557752 L78.1115957,69.078699 L77.8830169,69.4912229 L77.5955618,69.8760142 L77.3184966,70.2400059 L77.0968445,70.676796 L76.8751925,71.0823868 L76.7089533,71.5607759 L76.7089533,72.6319516 L76.9202155,73.7343266 L77.0448948,74.850568 L76.8197793,75.8697448 L76.4734479,76.3550671 L76.07863,76.8091902 L75.6076193,77.2390471 L75.0569522,77.5995722 L74.4820421,77.8942322 L73.875962,78.1195604 L73.2871985,78.2547573 L72.719215,78.3067562 L71.7529502,78.2547573 L70.8594151,78.2131583 L69.9762699,78.1195604 L71.9676757,78.0710282 L71.1676501,77.9843635 L70.3329912,77.8942322 L69.6056953,77.828367 L68.8125962,77.7347692 L68.0679836,77.686237 L67.2748845,77.5995722 L67.0774756,77.5995722 L66.2878399,77.6481044 L65.4427912,77.7347692 L64.7847614,77.828367 L64.1786814,78.0259626 L63.6314777,78.2166249 L63.150077,78.4835521 L62.7898923,78.8683435 L62.5197537,79.3328662 L62.2669318,79.8493878 L62.1387891,80.4837734 L61.861724,83.187712 L61.6850949,88.4985248 C61.5357706,91.5790656 58.9946427,94 55.910485,94 L20.9599795,94 L20.9599795,94 L20.8699333,86.5919015 L20.8387635,84.1756896 C20.8387635,84.1756896 21.340944,71.9525004 9.46870185,59.7154448 L2.46934322,48.3415695 L1.54117495,45.67923 L0.789635689,42.9371589 L0.34286814,40.1326892 L0.06926634,37.3455524 L1.62714286e-12,34.5029503 L0.155849164,31.6742145 L0.561056929,28.7865467 L0.838122086,27.4449772 L1.17406361,26.0375424 L1.58619809,24.6890397 L2.0606721,23.3370704 L2.61480251,22.0370999 L3.17239608,20.7197964 L3.82349919,19.4267591 L4.56118523,18.1475881 L5.30579788,16.9065496 L6.10236018,15.700177 L6.98550541,14.5839357 L7.87557725,13.4018292 L8.80720887,12.3445199 L9.78040018,11.3184098 L10.802078,10.3477651 L11.8618522,9.41178639 L13.0428424,8.47234106 L14.2446126,7.58489452 L15.4983324,6.79797905 L16.8178553,5.99373063 L18.1477681,5.29001327 L19.5608004,4.66949403 L20.9391996,3.99697595 L22.3453053,3.43885528 L23.7791175,2.93620003 L25.282196,2.45781089 L26.7748845,2.0487535 L28.2537199,1.60849683 L29.7429451,1.30690367 L31.2425603,1.02957664 L32.7213955,0.734916655 L34.2210108,0.506121847 L35.6478964,0.322392683 L37.0920985,0.187195751 L38.5293741,0.0970644638 L39.9805029,0.0485322319 L41.480118,1.05160325e-12 L42.910467,0.0450656439 L44.365059,0.0935978758 L45.7919445,0.187195751 L47.25,0.322392683 L48.6976654,0.506121847 L50.1314776,0.734916655 L51.5826065,1.02957664 L52.9575423,1.34850273 L54.3705747,1.733294 L55.7628271,2.09035256 L57.1620062,2.54794218 L58.3222166,2.98473226 L59.4685736,3.43885528 L60.6495638,3.90684466 L61.7612878,4.41296651 L62.8383787,4.92602154 L63.8981529,5.5118749 L64.9163673,6.09079511 L65.9484351,6.70438118 L66.9216265,7.4184983 L67.9225244,8.09101637 L65.9726783,8.8328662 L66.8523602,9.63018145 L67.7181888,10.4725623 L68.5563109,11.3149432 L69.394433,12.250922 L70.1840688,13.2215666 L71.0360441,14.3863401 L71.8741663,15.6065792 L72.7157516,16.8129518 L73.4603643,18.1059891 L71.3304258,19.4267591 L72.0023089,20.8168609 L72.7157516,22.2138959 L73.3703181,23.5935978 L73.9625449,25.056498 L74.5236019,26.554064 L75.0500256,28.0273639 L75.5487429,29.5283966 L76.0197537,31.0120961 L76.4284248,32.5581944 L76.8128527,34.059227 L77.1384043,35.5845258 L77.0414315,36.3194424 L76.6673935,37.1236908 L76.3072088,37.8690073 L76.2171626,38.6663225 L76.6223705,40.3857501 L77.1418676,42.112111 L77.7548743,43.7726066 L78.4302206,45.4573684 L79.0882504,47.1837291 L79.7947666,48.9066234 L80.3835301,50.7681812 L80.9515136,52.6748045 Z M51.5498494,67.9257367 C55.4315769,65.6641699 56.6451628,60.4500771 54.2577736,56.2765629 L40.1989337,64.4675049 C42.5866241,68.6408436 47.6672185,70.1878297 51.5498494,67.9257367 Z M51.3723335,52.2025389 C49.5507239,48.1883806 56.9046714,39.4790721 51.4605051,29.9648769 C45.6543986,19.8166395 34.8151945,18.9581397 26.2384158,23.6825132 C26.2384158,23.6825132 26.2384158,23.6825132 26.2375,23.6830467 L26.2365842,23.6835803 C17.8938625,28.8156289 13.2109218,38.7188134 19.0170284,48.8670508 C24.4605842,58.3816018 35.611837,56.3094357 38.14596,59.9084704 L51.3723335,52.2025389 Z" id="Combined-Shape" fill="#FFFFFF" fill-rule="nonzero" transform="translate(40.500000, 47.000000) scale(-1, 1) translate(-40.500000, -47.000000) "></path>
            </g>
        </g>
    </g>
</svg>